<?xml version="1.0" standalone="no"?>
<!DOCTYPE svg PUBLIC "-//W3C//DTD SVG 20010904//EN"
 "http://www.w3.org/TR/2001/REC-SVG-20010904/DTD/svg10.dtd">
<svg version="1.0" xmlns="http://www.w3.org/2000/svg"
 width="562.000000pt" height="557.000000pt" viewBox="0 0 562.000000 557.000000"
 preserveAspectRatio="xMidYMid meet">

<g transform="translate(0.000000,557.000000) scale(0.100000,-0.100000)"
fill="#000000" stroke="none">
<path d="M2600 5204 c-143 -16 -276 -39 -377 -64 -583 -143 -1086 -487 -1428
-976 -224 -319 -350 -639 -411 -1044 -22 -141 -24 -470 -5 -610 94 -687 425
-1253 974 -1664 308 -229 688 -387 1092 -451 156 -25 482 -31 643 -11 447 55
853 216 1196 475 530 402 865 970 951 1616 22 158 24 469 6 605 -64 471 -235
872 -530 1237 -44 54 -95 113 -114 131 l-34 33 -170 -293 c-228 -392 -373
-646 -373 -653 0 -3 83 -5 183 -5 101 0 225 -3 275 -6 l91 -7 -23 -31 c-270
-367 -1481 -2066 -1729 -2425 -59 -85 -107 -152 -107 -149 0 3 13 35 30 71 16
36 147 353 291 704 144 351 305 745 359 876 l97 237 -238 0 c-212 0 -239 2
-239 16 0 9 79 221 175 472 96 252 242 637 325 857 83 220 162 430 176 468
l26 67 311 0 312 1 -35 30 c-61 53 -225 157 -342 218 -233 122 -466 202 -728
248 -121 21 -182 26 -370 28 -124 2 -241 1 -260 -1z m710 -1173 c0 -5 -40
-114 -89 -243 l-90 -233 -450 -3 -451 -2 0 -210 0 -210 364 0 364 0 -38 -97
c-21 -54 -62 -156 -92 -228 l-53 -130 -273 -3 -272 -2 0 -230 0 -230 426 0
c415 0 425 0 419 -19 -3 -11 -48 -120 -100 -243 l-93 -223 -591 -3 -591 -2 0
1160 0 1160 805 0 c473 0 805 -4 805 -9z"/>
</g>
</svg>
